<?xml version="1.0" ?><svg height="64px" id="SVGRoot" version="1.1" viewBox="0 0 64 64" width="64px" xmlns="http://www.w3.org/2000/svg" xmlns:cc="http://creativecommons.org/ns#" xmlns:dc="http://purl.org/dc/elements/1.1/" xmlns:inkscape="http://www.inkscape.org/namespaces/inkscape" xmlns:rdf="http://www.w3.org/1999/02/22-rdf-syntax-ns#" xmlns:sodipodi="http://sodipodi.sourceforge.net/DTD/sodipodi-0.dtd" xmlns:svg="http://www.w3.org/2000/svg"><defs id="defs3848"/><g id="layer1"><g id="g4605" style="clip-rule:evenodd;fill-rule:evenodd;image-rendering:optimizeQuality;shape-rendering:geometricPrecision;text-rendering:geometricPrecision;stroke:#000000" transform="matrix(0.09599676,0,0,0.09599676,-249.80053,-706.01399)"><rect class="fil0 str1" height="410" id="rect161" rx="148" ry="148" style="fill:none;stroke:#000000;stroke-width:20.83460045" width="296" x="2774" y="7510"/><path class="fil0 str1" d="m 2824,7547 c 0,-53 43,-97 97,-97 53,0 97,43 97,97" id="path163" style="fill:none;stroke:#000000;stroke-width:20.83460045"/><line class="fil0 str0" id="line165" style="fill:none;stroke:#000000;stroke-width:20.83460045;stroke-linecap:round;stroke-linejoin:round" x1="2921" x2="2921" y1="7921" y2="7981"/><polyline class="fil0 str0" id="polyline167" points="2877,7525 2921,7790 2965,7523 " style="fill:none;stroke:#000000;stroke-width:20.83460045;stroke-linecap:round;stroke-linejoin:round"/><line class="fil0 str0" id="line169" style="fill:none;stroke:#000000;stroke-width:20.83460045;stroke-linecap:round;stroke-linejoin:round" x1="2956" x2="2988" y1="7457" y2="7400"/><line class="fil0 str0" id="line171" style="fill:none;stroke:#000000;stroke-width:20.83460045;stroke-linecap:round;stroke-linejoin:round" x1="2887" x2="2856" y1="7455" y2="7401"/><path class="fil0 str0" d="m 2682,7687 h 90 m 302,0 h 89" id="path173" style="fill:none;stroke:#000000;stroke-width:20.83460045;stroke-linecap:round;stroke-linejoin:round"/><path class="fil0 str0" d="m 3146,7498 v 79 h -100 m -248,0 h -99 v -79" id="path175" style="fill:none;stroke:#000000;stroke-width:20.83460045;stroke-linecap:round;stroke-linejoin:round"/><path class="fil0 str0" d="m 3144,7869 v -79 h -73 m -296,0 h -77 v 79" id="path177" style="fill:none;stroke:#000000;stroke-width:20.83460045;stroke-linecap:round;stroke-linejoin:round"/></g></g></svg>